<?xml version="1.0" encoding="UTF-8"?>
<svg id="Calque_2" data-name="Calque 2" xmlns="http://www.w3.org/2000/svg" viewBox="0 0 520.14 531.24">
  <defs>
    <style>
      .cls-1 {
        fill: #fff;
      }

      .cls-2, .cls-3 {
        isolation: isolate;
      }

      .cls-3 {
        fill: #ff7900;
        font-family: BrushScriptMT, 'Brush Script MT';
        font-size: 302.59px;
      }
    </style>
  </defs>
  <g id="svg4485">
    <g>
      <circle cx="260.07" cy="260.07" r="260.07"/>
      <g>
        <g>
          <g class="cls-2">
            <text class="cls-3" transform="translate(256.16 432.18) rotate(-19.6) scale(1.1 1) skewX(-4.8)"><tspan x="0" y="0">X</tspan></text>
          </g>
          <path class="cls-1" d="M200.16,227.01h18.48l28.96,171.56,28.96-171.56h18.48l-35.65,193.44h-23.59l-35.65-193.44Z"/>
        </g>
        <g>
          <g>
            <path class="cls-1" d="M347.34,54.28c-5.5-2.1-10.88-.79-14.15,4.72-4.06,6.81-2.62,12.84,3.67,17.56.26,0,.39.26.66.39.13,0,.26.13.39.26.26,0,.52.26.79.39h.26c.26,0,.52.13.66.26,7.6.92,13.5-1.31,15.33-9.83,1.31-6.55-1.31-11.93-7.47-14.15l-.13.39Z"/>
            <path class="cls-1" d="M166.08,75.38c6.03.26,11.53-5.24,11.66-11.93.26-6.68-4.85-12.45-11.4-12.84-6.42-.39-12.06,4.72-12.58,11.53-.66,7.73,4.19,12.84,12.32,13.24h0Z"/>
            <path class="cls-1" d="M348.25,154.15c-11.01,0-21.89,1.57-32.9,3.01-4.98.66-5.5-.39-3.8-4.85,3.93-10.35,7.6-20.84,11.4-31.32,3.54-8.91,7.21-17.82,10.48-26.87.79-2.23.92-4.85,1.31-7.34h-.13l-.26.26c-7.73,10.22-12.06,22.28-17.3,33.81-5.5,11.27-11.14,22.41-16.64,33.68-1.44,3.01-2.88,5.11-6.68,5.5-23.2,2.75-46.26,5.64-69.33,8.91-5.24.66-8.13-.79-10.48-5.9-11.93-25.43-24.25-50.72-36.57-75.88-1.18-2.49-1.44-6.29-6.03-7.08,10.88,28.83,21.36,56.88,32.24,84.93,1.97,5.11.79,6.68-4.06,7.08-6.29.52-12.45,1.18-18.61,2.1-11.4,1.83-23.33,1.44-33.94,7.34-20.84,11.53-33.68,39.32-31.19,67.1,2.62,30.01,4.98,60.02,7.86,90.04,1.57,16.91,1.18,34.34,9.17,50.06,8.26,16.12,19.79,28.05,39.06,32.9-7.99-13.76-10.35-27.26-11.27-41.15-1.7-23.2-4.59-46.39-6.03-69.72-1.18-18.48-5.24-36.83-2.23-55.57,4.32-27.78,22.54-48.75,47.31-52.16,43.12-5.77,86.11-11.27,129.22-16.38,22.28-2.62,44.3-7.73,68.28-5.37-13.37-17.3-28.31-27.13-48.75-27.13h-.13Z"/>
            <path class="cls-1" d="M348.12,154.15c-11.01,0-21.89,1.57-32.9,3.01-4.85.66-5.5-.39-3.8-4.85,3.93-10.35,7.6-20.84,11.4-31.32-1.97,0-3.93-.13-5.9-.26-5.5,11.14-11.14,22.41-16.64,33.68-1.44,3.01-2.88,5.11-6.68,5.5-23.2,2.75-46.26,5.64-69.33,8.91-5.24.66-8.13-.79-10.48-5.9-12.06-25.43-24.25-50.72-36.57-75.88-1.18-2.49-1.44-6.29-6.03-7.08,10.88,28.83,21.36,56.88,32.24,84.93,1.97,5.11.79,6.68-4.06,7.08-6.16.52-12.45,1.18-18.61,2.1-11.4,1.83-23.33,1.44-33.94,7.34-20.84,11.53-33.68,39.45-31.19,67.1,2.62,30.01,4.98,60.02,7.86,90.04,1.57,16.91,1.05,34.34,9.17,50.06,8.26,16.12,19.79,27.92,39.06,32.9-7.99-13.76-10.35-27.13-11.27-41.15-1.7-23.33-4.46-46.53-6.03-69.72-1.18-18.48-5.11-36.83-2.23-55.57,4.32-27.78,22.54-48.88,47.31-52.16,42.99-5.77,86.11-11.27,129.22-16.38,22.28-2.62,44.3-7.73,68.28-5.37-13.37-17.3-28.31-27.13-48.75-27.13l-.13.13Z"/>
            <path class="cls-1" d="M166.08,75.38c-8.13-.39-12.84-5.5-12.32-13.37.52-6.81,6.16-11.93,12.58-11.53,6.55.39,11.66,6.16,11.4,12.84-.26,6.68-5.77,12.32-11.66,11.93v.13Z"/>
            <path class="cls-1" d="M347.34,54.15c-5.5-2.1-10.88-.79-14.15,4.72-4.06,6.81-2.62,12.84,3.8,17.56h.39c.66.39,1.18.79,1.7,1.18h.39c7.6,1.05,13.63-1.05,15.33-9.57,1.31-6.42-1.31-11.8-7.47-14.15v.26Z"/>
          </g>
          <path class="cls-1" d="M334.49,86.65s-.26.13-.26.26c-7.73,10.22-12.06,22.28-17.3,33.81,1.97,0,3.8.13,5.77.26,3.54-8.91,7.21-17.82,10.48-26.87.92-2.23,1.05-4.85,1.44-7.34h-.13v-.13Z"/>
        </g>
      </g>
    </g>
  </g>
</svg>