<svg xmlns="http://www.w3.org/2000/svg" viewBox="0 0 611.11 386.8"><defs><style>.cls-1,.cls-2{isolation:isolate;}.cls-2{font-size:230.88px;fill:#ff7900;font-family:BrushScriptMT, Brush Script MT;}.cls-3{fill:#fff;}</style></defs><g id="Calque_2" data-name="Calque 2"><g id="svg4485"><g class="cls-1"><text class="cls-2" transform="matrix(1.03, -0.37, 0.25, 0.97, 437.03, 311.22)">X</text></g><path class="cls-3" d="M64.73,134.72h14.1l22.1,130.9L123,134.72h14.1l-27.2,147.6h-18Z"/><path class="cls-3" d="M150.13,140.52h13.3v14.6h-13.3Zm0,36.4h13.3v105.4h-13.3Z"/><path class="cls-3" d="M194,280.32a22.07,22.07,0,0,1-9.7-10.5c-2.2-4.7-3.2-10.5-3.2-17.6h12.3c0,6.3,1.4,11.1,4.1,14.3s7,4.8,12.6,4.8,9.8-1.5,12.6-4.5,4.1-7.6,4.1-13.7-.6-5.6-1.7-7.6a15.71,15.71,0,0,0-4.7-4.9,46.86,46.86,0,0,0-7.4-3.5c-.4-.1-.9-.3-1.3-.4s-.9-.3-1.4-.4c-.3-.1-.6-.2-1-.3a4.4,4.4,0,0,0-1-.2,76.13,76.13,0,0,1-13.5-5.5,23.52,23.52,0,0,1-8.9-8.6c-2.5-3.9-3.6-9.2-3.6-15.9s1-12.4,3-16.9a20.74,20.74,0,0,1,9-10.1c4-2.2,9.1-3.3,15.1-3.3s11.1,1.1,15.1,3.2a20,20,0,0,1,9,9.8c2,4.4,3,9.8,3,16.4h-12.3c0-5.7-1.2-9.9-3.7-12.7s-6.2-4.2-11.1-4.2-8.6,1.4-11.1,4.3-3.7,7.3-3.7,13.1.8,6.5,2.3,8.8a16.73,16.73,0,0,0,5.9,5.3,49.05,49.05,0,0,0,9.2,3.6,1.27,1.27,0,0,1,.6.1c.2.1.4,0,.6.1a.6.6,0,0,1,.4.1c.1.1.3,0,.4,0a73.07,73.07,0,0,1,13.2,5.1,22.16,22.16,0,0,1,8.6,8.6c2.4,3.9,3.5,9.3,3.5,16s-1.1,12.6-3.2,17.1a21.82,21.82,0,0,1-9.7,10.2c-4.3,2.3-9.7,3.4-16.2,3.4s-12-1.3-16.2-3.6Z"/><path class="cls-3" d="M256,140.52h13.3v14.6H256Zm0,36.4h13.3v105.4H256Z"/><path class="cls-3" d="M302.53,280.22a23.7,23.7,0,0,1-9.5-10.5,39.47,39.47,0,0,1-3.2-16.5v-47.9A38.52,38.52,0,0,1,293,189a22.61,22.61,0,0,1,9.5-10.3c4.2-2.4,9.1-3.5,14.9-3.5a30.39,30.39,0,0,1,14.9,3.5,22.65,22.65,0,0,1,9.5,10.3,38.2,38.2,0,0,1,3.2,16.3v48.2a39.32,39.32,0,0,1-3.2,16.4,22.85,22.85,0,0,1-9.5,10.4c-4.2,2.4-9.1,3.5-14.9,3.5A29.36,29.36,0,0,1,302.53,280.22Zm25.3-14.4c2.5-2.9,3.7-7,3.7-12.4v-48.2c0-5.2-1.3-9.3-3.8-12.2s-6-4.3-10.5-4.3-8,1.4-10.4,4.3-3.7,7-3.7,12.2v48.2c0,5.3,1.2,9.5,3.7,12.4s5.9,4.3,10.4,4.3,8.1-1.4,10.6-4.3Z"/><path class="cls-3" d="M363.53,176.92h13.3v105.4h-13.3Zm45.3,31c0-6.4-1.3-11.2-4-14.4s-6.7-4.8-12-4.8-9.4,1.7-12,5.3-4,8.8-4,15.9l-1.9-15.2c2.2-6.5,5.2-11.5,9.1-14.7a20.79,20.79,0,0,1,13.8-4.9c8.2,0,14.3,2.7,18.4,8.2s6,13.6,6,24.6v74.4h-13.3v-74.4h-.1Z"/><path class="cls-3" d="M444.53,140.52h13.3v14.6h-13.3Zm0,36.4h13.3v105.4h-13.3Z"/><path class="cls-3" d="M177,2.92c-4.2-1.6-8.3-.6-10.8,3.6-3.1,5.2-2,9.8,2.8,13.4.2,0,.3.2.5.3s.2.1.3.2.4.2.6.3h.2a.76.76,0,0,1,.5.2c5.8.7,10.3-1,11.7-7.5,1-5-1-9.1-5.7-10.8Z"/><path class="cls-3" d="M38.73,19c4.6.2,8.8-4,8.9-9.1a9.42,9.42,0,0,0-8.7-9.8,9.3,9.3,0,0,0-9.6,8.8c-.5,5.9,3.2,9.8,9.4,10.1Z"/><path class="cls-3" d="M177.73,79.12c-8.4,0-16.7,1.2-25.1,2.3-3.8.5-4.2-.3-2.9-3.7,3-7.9,5.8-15.9,8.7-23.9,2.7-6.8,5.5-13.6,8-20.5a32.69,32.69,0,0,0,1-5.6h-.1l-.2.2c-5.9,7.8-9.2,17-13.2,25.8-4.2,8.6-8.5,17.1-12.7,25.7-1.1,2.3-2.2,3.9-5.1,4.2-17.7,2.1-35.3,4.3-52.9,6.8-4,.5-6.2-.6-8-4.5-9.1-19.4-18.5-38.7-27.9-57.9-.9-1.9-1.1-4.8-4.6-5.4C51,44.62,59,66,67.33,87.42c1.5,3.9.6,5.1-3.1,5.4-4.8.4-9.5.9-14.2,1.6-8.7,1.4-17.8,1.1-25.9,5.6-15.9,8.8-25.7,30-23.8,51.2,2,22.9,3.8,45.8,6,68.7,1.2,12.9.9,26.2,7,38.2,6.3,12.3,15.1,21.4,29.8,25.1-6.1-10.5-7.9-20.8-8.6-31.4-1.3-17.7-3.5-35.4-4.6-53.2-.9-14.1-4-28.1-1.7-42.4,3.3-21.2,17.2-37.2,36.1-39.8,32.9-4.4,65.7-8.6,98.6-12.5,17-2,33.8-5.9,52.1-4.1-10.2-13.2-21.6-20.7-37.2-20.7Z"/><path class="cls-3" d="M177.63,79.12c-8.4,0-16.7,1.2-25.1,2.3-3.7.5-4.2-.3-2.9-3.7,3-7.9,5.8-15.9,8.7-23.9-1.5,0-3-.1-4.5-.2-4.2,8.5-8.5,17.1-12.7,25.7-1.1,2.3-2.2,3.9-5.1,4.2-17.7,2.1-35.3,4.3-52.9,6.8-4,.5-6.2-.6-8-4.5q-13.8-29.1-27.9-57.9c-.9-1.9-1.1-4.8-4.6-5.4,8.3,22,16.3,43.4,24.6,64.8,1.5,3.9.6,5.1-3.1,5.4-4.7.4-9.5.9-14.2,1.6-8.7,1.4-17.8,1.1-25.9,5.6-15.9,8.8-25.7,30.1-23.8,51.2,2,22.9,3.8,45.8,6,68.7,1.2,12.9.8,26.2,7,38.2,6.3,12.3,15.1,21.3,29.8,25.1-6.1-10.5-7.9-20.7-8.6-31.4-1.3-17.8-3.4-35.5-4.6-53.2-.9-14.1-3.9-28.1-1.7-42.4,3.3-21.2,17.2-37.3,36.1-39.8q49.2-6.6,98.6-12.5c17-2,33.8-5.9,52.1-4.1-10.2-13.2-21.6-20.7-37.2-20.7Z"/><path class="cls-3" d="M38.73,19c-6.2-.3-9.8-4.2-9.4-10.2A9.3,9.3,0,0,1,38.93,0a9.42,9.42,0,0,1,8.7,9.8c-.2,5.1-4.4,9.4-8.9,9.1Z"/><path class="cls-3" d="M177,2.82c-4.2-1.6-8.3-.6-10.8,3.6-3.1,5.2-2,9.8,2.9,13.4h.3a14.63,14.63,0,0,1,1.3.9h.3c5.8.8,10.4-.8,11.7-7.3,1-4.9-1-9-5.7-10.8Z"/><path class="cls-3" d="M167.23,27.62s-.2.1-.2.2c-5.9,7.8-9.2,17-13.2,25.8,1.5,0,2.9.1,4.4.2,2.7-6.8,5.5-13.6,8-20.5a25.26,25.26,0,0,0,1.1-5.6h-.1Z"/></g></g></svg>